<?xml version="1.0" encoding="UTF-8" standalone="no"?>
<svg
   width="25.981054mm"
   height="27.19943mm"
   viewBox="0 0 25.981054 27.19943"
   version="1.1"
   id="svg1"
   xml:space="preserve"
   xmlns="http://www.w3.org/2000/svg">
  <g id="layer1" transform="translate(-140.35163,-121.17962)">
    <path
       style="fill:#000000;stroke-width:1.13071"
       d="m 140.35162,137.73196 v -10.64683 h 2.286 2.286 v 10.11833 10.11832 l 1.19592,-0.0112 1.19592,-0.0112 0.007,-0.14817 c 0.004,-0.0815 0.009,-3.67735 0.0106,-7.99079 l 0.004,-7.84262 2.25425,0.011 2.25425,0.011 0.0107,7.99108 0.0107,7.99107 1.1958,-0.0112 1.19581,-0.0112 0.0107,-6.00075 0.0107,-6.00075 h 2.26469 2.26469 v 6.01133 6.01133 h 1.2065 1.2065 v -4.04283 -4.04283 h 2.26483 2.26483 v 4.572 4.572 h -12.7 -12.7 z m 23.72784,-3.70516 c -1.18745,-0.29808 -2.16538,-0.54362 -2.17316,-0.54565 -0.008,-0.002 0.21629,-0.24584 0.49795,-0.54182 0.28167,-0.29597 0.50711,-0.55158 0.501,-0.56803 -0.0264,-0.0709 -1.52495,-1.28673 -2.35614,-1.91163 -5.08277,-3.8213 -10.96641,-6.42875 -17.22357,-7.63293 -0.65817,-0.12667 -0.81441,-0.16988 -0.81228,-0.22464 0.001,-0.0373 0.0548,-0.3726 0.11865,-0.74514 l 0.11601,-0.67733 0.1671,0.0129 c 0.28381,0.022 1.98445,0.37491 2.8976,0.60137 5.9862,1.48456 11.22835,4.02243 16.24013,7.8623 0.42063,0.32227 1.25281,1.00366 1.6504,1.35135 0.14228,0.12442 0.27847,0.22622 0.30265,0.22622 0.0242,0 0.27417,-0.24048 0.55554,-0.53439 0.32255,-0.33691 0.51902,-0.5129 0.53168,-0.47625 0.011,0.032 0.24155,0.82966 0.51223,1.77264 0.69899,2.43498 0.69654,2.42648 0.72183,2.50825 0.0141,0.0456 0.001,0.0723 -0.0328,0.0694 -0.0307,-0.003 -1.02732,-0.24856 -2.21477,-0.54664 z"
       id="path8" />
  </g>
</svg>
